<svg width="112" height="112" viewBox="0 0 112 112" fill="none" xmlns="http://www.w3.org/2000/svg">
<rect width="112" height="112" fill="#FCF944"/>
<path d="M97.9421 62.1829V61.7141C97.8789 60.4392 97.7454 59.1687 97.5422 57.9084C97.4835 57.58 97.3576 57.2673 97.1726 56.9897C96.9875 56.7121 96.7472 56.4757 96.4667 56.2952C95.9281 56.0053 95.3217 55.8652 94.7105 55.8894C94.0993 55.9137 93.5059 56.1014 92.992 56.433C92.7492 56.5765 92.5145 56.733 92.2887 56.9019L91.9578 57.1363C91.5048 57.3859 91.1196 57.7426 90.836 58.1752C90.5524 58.6078 90.379 59.1032 90.3307 59.6182C90.3307 60.68 90.3307 61.7417 90.3307 62.8172C90.3307 63.093 90.3307 63.3825 90.3307 63.6583C90.2484 64.1458 90.2069 64.6393 90.2066 65.1337C90.2204 65.3817 90.2204 65.6303 90.2066 65.8783C90.2066 66.2368 90.0688 67.0779 90.4273 67.2572C90.5772 67.3583 90.7469 67.4265 90.9252 67.4574C91.1034 67.4883 91.2861 67.4812 91.4614 67.4364C91.6545 67.3675 91.7923 67.009 91.9027 66.8573C92.0634 66.6145 92.1585 66.3342 92.1784 66.0438C92.2749 65.3819 92.2612 64.6649 92.3163 64.0582C92.3991 63.1206 92.399 62.1829 92.4818 61.3004V60.9282C92.4885 60.4555 92.582 59.9882 92.7576 59.5493C93.1436 58.8548 93.7298 58.2927 94.4398 57.936C94.7431 57.7843 94.9362 57.7705 95.0051 57.8119C95.0741 57.8533 95.1292 57.9774 95.1568 58.1704C95.3085 59.5493 95.4326 60.9282 95.5015 62.307V62.7345C95.5856 63.2913 95.5527 63.8595 95.405 64.4029C94.8835 65.8023 93.9139 66.99 92.6472 67.7811C92.4376 67.9053 92.2586 68.0749 92.1233 68.2775L92.0405 68.1259C91.8973 67.7633 91.6868 67.4311 91.4201 67.1468C89.6086 65.6251 87.5138 64.4769 85.2565 63.7686L85.0083 63.6721C84.595 63.528 84.1708 63.4174 83.7398 63.3412C83.3346 63.2766 82.9372 63.1703 82.5539 63.024C81.5219 62.6418 80.4278 62.4548 79.3274 62.4725H78.8034C77.9485 62.4725 77.0798 62.2932 76.156 62.1691L74.8736 61.9347L75.108 61.6452C76.3299 60.2337 77.3592 58.6665 78.1691 56.9846C78.9878 54.7477 79.5971 52.4397 79.9892 50.0902C80.7145 46.9268 80.901 43.6636 80.5408 40.4382C80.3263 39.2734 79.9841 38.1359 79.5204 37.0461C79.286 36.4119 79.0516 35.7914 78.8586 35.1571C78.4708 33.9267 78.0104 32.7203 77.4797 31.5445L76.8454 30.0415L76.5007 29.1866C76.1836 28.3731 75.8664 27.5871 75.5217 26.8012C75.2648 26.2066 75.1605 25.5572 75.2183 24.9121C75.2344 23.6472 75.1421 22.3832 74.9426 21.134C74.8274 20.3799 74.6045 19.6462 74.2807 18.9554C74.1469 18.7038 73.9488 18.4922 73.7066 18.342C73.4644 18.1918 73.1867 18.1085 72.9018 18.1005C72.619 18.0735 72.3348 18.1345 72.088 18.2752C71.8412 18.4159 71.6438 18.6294 71.523 18.8864C71.3142 19.2376 71.0261 19.5351 70.6819 19.7551C69.5649 20.6242 68.7301 21.8045 68.2826 23.1472V23.2988C68.0758 23.7539 67.9241 24.2365 67.7587 24.6777C67.5937 25.2396 67.3863 25.7881 67.1382 26.3185L67.0279 26.5254C66.559 27.463 66.1592 28.2765 65.0974 28.4696C64.4669 28.5553 63.8532 28.7366 63.2773 29.0073C61.8512 29.5812 60.2872 29.7203 58.7822 29.4072C57.0173 29.228 55.2247 28.9108 53.4874 28.6075C52.4119 28.4236 51.3363 28.2306 50.2608 28.0283C48.6751 27.7939 47.1032 27.6285 45.5865 27.5457H45.3107C43.4373 27.5559 41.5747 27.2625 39.7952 26.6771C39.3402 26.4978 39.1609 26.291 39.1333 25.8635C38.899 24.4769 38.2831 23.183 37.3546 22.1268L37.1064 21.7959C36.4824 20.9757 35.8053 20.1973 35.0795 19.4656C34.6382 18.9968 34.2108 18.5417 33.7971 18.0867C33.3747 17.5587 32.7808 17.1952 32.1184 17.0592C31.4561 16.9232 30.767 17.0233 30.1707 17.3421C29.0818 17.8545 28.1837 18.6994 27.606 19.7551C27.049 20.7396 26.6489 21.805 26.4202 22.9127C26.2218 24.1174 26.0975 25.3331 26.0479 26.553V27.0356C26.0059 27.7363 26.2327 28.4267 26.6822 28.966L26.5856 29.3107C26.4266 29.8185 26.2931 30.3339 26.1858 30.855C26.1186 31.178 26.0726 31.505 26.0479 31.834C26.0254 32.1777 25.9747 32.519 25.8962 32.8544C25.6342 33.8885 25.3447 34.9089 25.0551 35.9293C24.8483 36.6463 24.6552 37.3081 24.4622 38.0803C24.2691 38.8525 24.1037 39.5557 23.952 40.3416C23.8693 40.8105 23.7452 41.2793 23.6349 41.7205C23.2536 42.9178 23.0993 44.1757 23.1798 45.4297L19.9395 46.4914V46.4087C19.4707 45.54 18.8364 44.1335 17.8022 43.8991C17.2139 43.745 16.5983 43.7257 16.0014 43.8427C15.4045 43.9597 14.8417 44.2099 14.3551 44.5748C14.1628 44.8437 14.0439 45.158 14.01 45.4868C13.9762 45.8156 14.0286 46.1476 14.162 46.45C14.0169 46.8142 13.9993 47.2168 14.1119 47.5923C14.2246 47.9678 14.4609 48.2942 14.7825 48.5183C15.0899 48.8061 15.4121 49.0776 15.7477 49.3319H15.8305C15.8305 49.4698 15.7615 49.6076 15.7339 49.7455C15.5817 50.2596 15.5165 50.7956 15.5409 51.3312C15.5409 52.0207 15.5409 52.7101 15.5409 53.3857C15.5062 54.498 15.5801 55.6109 15.7615 56.7088C15.9651 58.1405 16.3786 59.5344 16.9887 60.8454C17.4027 61.6084 17.8632 62.3452 18.3676 63.0516C18.6985 63.5342 19.0294 64.003 19.319 64.4305C20.9584 67.0559 23.028 69.3866 25.4412 71.3248C26.1117 71.867 26.8428 72.3297 27.6198 72.7037C26.861 73.0436 26.2117 73.5878 25.7445 74.2756C25.378 74.807 25.0684 75.3755 24.8207 75.9716C24.6901 76.2971 24.5236 76.6069 24.3243 76.8955C24.11 77.0136 23.9513 77.212 23.8831 77.447C23.7727 77.902 23.6762 78.3708 23.5935 78.8259C23.4142 79.7083 23.235 80.6046 22.973 81.4733C22.78 82.0938 22.6421 82.7281 22.5042 83.3761C22.5042 83.6381 22.3801 83.9139 22.3249 84.1759L22.2836 84.562C22.2326 84.7132 22.2047 84.8712 22.2008 85.0308C22.2008 86.0236 22.1043 87.0026 22.0767 87.9953V89.0571C22.0767 90.1602 21.994 91.2771 21.994 92.3939C22.0311 92.7863 22.1721 93.1617 22.4023 93.4815C22.6325 93.8014 22.9437 94.0542 23.3039 94.214C23.6347 94.4066 24.0105 94.5081 24.3932 94.5081C24.7759 94.5081 25.1518 94.4066 25.4825 94.214C26.3068 93.6561 27.0817 93.0288 27.799 92.3388C27.8818 92.3388 28.0197 92.1319 28.1162 92.063L28.3782 92.3526C28.7418 92.8298 29.2147 93.2128 29.757 93.4695C30.1354 93.5896 30.5361 93.6226 30.9291 93.566C31.0054 93.856 31.1469 94.1248 31.3427 94.3519C31.5121 94.5532 31.7231 94.7153 31.9611 94.8272C32.1991 94.9391 32.4586 94.998 32.7216 95H34.6934C35.5627 94.9787 36.4075 94.7072 37.1264 94.2181C37.8454 93.729 38.4082 93.043 38.7473 92.2423C39.041 91.6216 39.3033 90.9865 39.5332 90.3394C39.6987 89.8568 39.8779 89.388 40.0848 88.9606C40.2916 88.5331 40.2364 88.6434 40.4571 88.6986C41.0906 88.8158 41.7402 88.8158 42.3737 88.6986H42.7046C44.3455 88.4917 46.2621 88.2298 48.2201 87.9126C49.4335 87.7196 50.6469 87.4852 51.8879 87.2508L52.8669 87.0577C52.8669 87.5403 52.8669 88.0781 52.8669 88.602C52.8934 89.0219 53.0077 89.4316 53.2024 89.8045C53.3972 90.1774 53.6681 90.5052 53.9976 90.7669C54.1926 90.9142 54.4147 91.0218 54.6513 91.0833C54.8879 91.1448 55.1343 91.1591 55.3764 91.1254C55.5557 91.1254 55.6936 90.9875 55.8866 91.0289C56.0796 91.0702 56.2589 91.3322 56.3416 91.5942C56.5477 92.157 56.9077 92.6506 57.3807 93.0187C57.8536 93.3868 58.4205 93.6147 59.0166 93.6763C59.4749 93.7217 59.9174 93.8676 60.3128 94.1037C60.9483 94.5771 61.7196 94.8328 62.5121 94.8328C63.3045 94.8328 64.0758 94.5771 64.7114 94.1037C64.9143 93.8879 65.0652 93.6285 65.1526 93.3454C65.181 93.2459 65.2179 93.149 65.2629 93.0558L65.7593 92.2009C66.1271 91.6245 66.4498 91.0206 66.7245 90.3946C66.9315 89.8445 67.0884 89.2769 67.1933 88.6986C67.2733 88.3118 67.3746 87.9297 67.4967 87.5541C67.6434 87.1514 67.8281 86.7636 68.0482 86.3959L68.2826 85.9684C68.3929 85.7616 68.5446 85.541 68.6825 85.3341C69.0838 84.8371 69.3455 84.2422 69.4409 83.6105C69.4409 83.1004 69.4409 83.1142 70.1855 83.1142H71.4954H74.9701C75.2873 83.1142 75.632 83.1142 75.9354 83.1142H76.0595C76.069 83.1689 76.069 83.2249 76.0595 83.2796C76.0595 84.6585 76.2387 86.1752 76.349 87.2783C76.4699 87.7569 76.7271 88.1901 77.0893 88.5254C77.4516 88.8607 77.9033 89.0837 78.3897 89.1674C78.8686 89.2312 79.3556 89.1465 79.7847 88.9245C80.2138 88.7025 80.5644 88.3541 80.789 87.9264C80.8171 87.8881 80.8402 87.8464 80.8579 87.8023C81.1643 88.3931 81.6459 88.8748 82.2368 89.1812C82.7413 89.4324 83.293 89.5745 83.8561 89.5982C84.4191 89.622 84.9809 89.5269 85.5047 89.3191L85.8908 89.1812C86.594 88.8916 86.856 88.8089 87.2697 89.2639C87.371 89.3682 87.4937 89.4494 87.6294 89.5018C87.7651 89.5541 87.9105 89.5765 88.0556 89.5673H88.3314C88.4566 89.587 88.5848 89.5618 88.6933 89.4962C88.8018 89.4306 88.8836 89.3288 88.9243 89.2087L89.6275 86.6854C90.0961 87.3151 90.7859 87.7437 91.5579 87.885C91.7708 87.9332 91.9923 87.9268 92.202 87.8666C92.4117 87.8063 92.6028 87.6941 92.7576 87.5403L92.8954 87.3886C93.6033 86.7092 94.158 85.8866 94.5225 84.9756C95.1486 83.037 95.6098 81.049 95.9014 79.0327C96.1077 77.3643 95.9694 75.6713 95.495 74.0585C95.0206 72.4457 94.2203 70.9474 93.1436 69.6564C93.7143 69.5547 94.2475 69.3024 94.688 68.9256C95.0087 68.6207 95.3125 68.2985 95.598 67.9604C95.8193 67.6827 96.0588 67.4202 96.315 67.1744C97.0835 66.3479 97.6126 65.3279 97.8456 64.2236C98.0096 63.5561 98.0424 62.863 97.9421 62.1829ZM89.5448 81.3768L89.3517 81.294C89.2885 81.2671 89.2205 81.2532 89.1518 81.2532C89.0831 81.2532 89.0151 81.2671 88.9519 81.294C88.8855 81.3134 88.8241 81.3469 88.7717 81.3921C88.7194 81.4373 88.6774 81.4932 88.6485 81.556L88.5382 81.7491C88.4273 81.9517 88.335 82.164 88.2624 82.3833C88.2122 82.6155 88.1754 82.8502 88.1521 83.0866C88.1521 83.252 88.1521 83.4313 88.0832 83.5968C88.0142 83.7622 87.9867 83.9277 87.9315 84.1069C87.8591 84.3099 87.7992 84.5171 87.7523 84.7274C87.6006 85.4582 87.4489 86.189 87.2972 86.9612V87.0301C87.0659 86.8069 86.7569 86.6821 86.4354 86.6821C86.1139 86.6821 85.805 86.8069 85.5737 87.0301C85.51 87.0163 85.4442 87.0163 85.3806 87.0301H85.1462C84.8712 86.9959 84.592 87.029 84.3327 87.1267C84.1337 87.2638 83.9083 87.358 83.6709 87.4031C83.4334 87.4482 83.1892 87.4433 82.9538 87.3886C82.678 87.2783 82.4436 86.9198 82.223 86.2993C82.2076 86.2261 82.1796 86.1562 82.1403 86.0925C82.1403 86.0925 82.1403 85.9684 82.1403 85.8995C82.1008 85.6628 82.0116 85.4371 81.8785 85.2375C81.7454 85.0378 81.5714 84.8687 81.3681 84.7412C81.1724 84.6381 80.9576 84.5763 80.737 84.5597C80.5164 84.5431 80.2947 84.572 80.0857 84.6447C79.9919 84.6731 79.9076 84.7267 79.8419 84.7996C79.7763 84.8725 79.7319 84.962 79.7135 85.0584C79.5821 85.6782 79.2472 86.2364 78.762 86.6441L78.6517 86.7406C78.5414 86.8371 78.3897 87.0026 78.4173 87.0577C78.3298 86.8973 78.2869 86.7164 78.2932 86.5337C78.2932 85.8167 78.2932 85.1549 78.2932 84.3827C78.2932 83.9277 78.2932 83.4727 78.2932 83.0038C78.2912 82.5799 78.1456 82.1692 77.8801 81.8386C77.6147 81.5081 77.2451 81.2772 76.8316 81.1837C75.9358 80.9292 74.9977 80.8589 74.0739 80.9769C72.6702 81.034 71.2642 80.9833 69.8683 80.8252C69.1261 80.7713 68.3887 80.9813 67.7862 81.4181C67.4139 81.7215 67.4002 82.1765 67.2485 82.604C67.0698 83.1383 66.8242 83.6479 66.5177 84.1207C66.2814 84.4044 66.0864 84.7201 65.9386 85.0584C65.9386 85.279 65.7869 85.5134 65.7179 85.7478C65.5249 86.3269 65.3319 86.8785 65.1802 87.43C65.0837 87.7472 65.0147 88.0781 64.9458 88.409C64.8442 88.8772 64.7106 89.3379 64.5459 89.7879C64.3594 90.2068 64.1283 90.6044 63.8565 90.9737L63.3877 91.6631C63.3121 91.8404 63.195 91.9968 63.0462 92.1193C62.8974 92.2417 62.7212 92.3264 62.5327 92.3664C62.2134 92.4214 61.8869 92.4214 61.5675 92.3664C60.6324 92.2135 59.7343 91.886 58.9201 91.4012C58.5859 91.2495 58.2786 91.0446 58.0101 90.7944C57.7343 90.4635 57.6378 90.0085 57.3758 89.6638C57.0822 89.1885 56.6344 88.8283 56.1072 88.6434C55.7436 88.5829 55.371 88.6065 55.0179 88.7124V88.4228C55.0179 87.6506 55.0179 86.8371 55.0179 86.0236C55.0255 85.7217 54.9664 85.4218 54.8448 85.1453C54.7233 84.8689 54.5423 84.6226 54.3147 84.4241C54.0999 84.276 53.8551 84.177 53.5977 84.1341C53.3404 84.0913 53.0767 84.1055 52.8255 84.1759C52.0679 84.326 51.325 84.5429 50.6055 84.8239C49.7666 85.176 48.8678 85.3633 47.9581 85.3755C47.0313 85.4271 46.1096 85.547 45.2004 85.734L43.8904 85.9546L43.1321 86.0511C41.9187 86.2304 40.6501 86.4096 39.4091 86.5337C39.1457 86.5506 38.8926 86.6427 38.6799 86.7991C38.4673 86.9555 38.304 87.1697 38.2095 87.4162C38.1268 87.6093 38.044 87.8161 37.9751 88.0229C37.8523 88.3775 37.7049 88.7231 37.5339 89.0571C37.3494 89.4216 37.2061 89.8054 37.1064 90.2015C37.0386 90.6467 36.853 91.0657 36.5687 91.4149L36.2101 91.7872C35.5207 92.5318 35.0933 92.9455 34.2522 92.6973C34.1473 92.6787 34.0399 92.6787 33.935 92.6973H33.6179H33.4524H32.9009C33.0112 91.4287 33.0112 90.5876 32.5148 90.0223C32.3368 89.8375 32.1223 89.6918 31.8849 89.5944C31.6475 89.4971 31.3924 89.4503 31.1359 89.4569C31.0242 89.4563 30.915 89.4905 30.8236 89.5547C30.7321 89.619 30.663 89.7101 30.6257 89.8155L30.1293 91.2633C29.7295 91.2633 29.5364 91.1667 29.3572 90.7117C29.1722 90.276 28.8659 89.9027 28.4747 89.6362C28.2571 89.502 28.0065 89.4309 27.7508 89.4309C27.4951 89.4309 27.2445 89.502 27.0269 89.6362C26.7545 89.8691 26.5051 90.1277 26.2823 90.4084C26.1404 90.5954 25.9836 90.7706 25.8135 90.9323C25.5444 91.1811 25.2587 91.4115 24.9586 91.6218L24.6139 91.8838L24.145 92.2285V92.0492C24.145 91.7045 24.145 91.3598 24.145 91.0289C24.145 90.6979 24.145 90.3946 24.145 90.0912C24.145 89.7879 24.145 89.3742 24.145 89.0157C24.1429 88.0202 24.2028 87.0255 24.3243 86.0374C24.4571 85.1643 24.6367 84.2989 24.8621 83.4451C24.9862 82.9625 25.0965 82.4799 25.2068 82.0662C25.2625 81.7882 25.3039 81.5074 25.3309 81.2251C25.3702 80.8412 25.4488 80.4623 25.5653 80.0944C25.8486 79.2055 26.2375 78.3537 26.7235 77.5573C26.8639 77.3414 26.9883 77.1156 27.0958 76.8817C27.2742 76.3927 27.6086 75.976 28.0472 75.6958C29.0811 74.9674 30.1851 74.3438 31.3427 73.8344C31.7726 73.7995 32.2053 73.8321 32.6251 73.9309C33.3421 74.0136 34.004 74.0412 34.7623 74.1515C36.6652 74.4273 38.568 74.7444 40.4709 75.0616L43.1045 75.489L44.0973 75.6683C44.895 75.8256 45.7004 75.9406 46.5103 76.013H46.924C48.9938 76.2511 51.0883 76.158 53.1289 75.7372C54.0527 75.5028 54.9628 75.1994 55.8866 74.9099L56.8932 74.579C57.0506 74.5211 57.189 74.4209 57.293 74.2894L57.8584 73.8206C58.3134 73.4345 58.7822 73.0484 59.2373 72.6899C59.4903 72.5036 59.7577 72.3376 60.037 72.1935L60.5058 71.9315L61.1263 71.5179L61.6916 71.0628L61.8157 70.9525C61.9626 70.8769 62.0936 70.774 62.2018 70.6492L62.2708 70.4975C62.5569 70.3384 62.825 70.1488 63.0705 69.9322C63.2625 69.7551 63.4755 69.6022 63.7048 69.4771C64.4253 69.0871 65.1044 68.6251 65.7317 68.0983C66.0351 67.8639 66.3522 67.6157 66.6694 67.395C66.8861 67.2602 67.1237 67.1624 67.3726 67.1055C69.1582 66.5565 70.8271 65.6823 72.2951 64.527C72.56 64.2656 72.883 64.0706 73.2377 63.958C73.5924 63.8453 73.9687 63.8182 74.3359 63.8789C75.7147 64.1547 76.9833 64.3064 78.2794 64.4718H78.6242C78.9686 64.4925 79.3139 64.4925 79.6583 64.4718C80.1215 64.448 80.5857 64.4898 81.0372 64.5959H81.2716C83.394 65.1502 85.484 65.8223 87.5316 66.6091L87.7109 66.6918C89.1587 67.2847 90.5376 67.8363 90.8961 69.4496C90.9518 69.6722 91.0717 69.8736 91.2408 70.0287C92.1111 70.8681 92.7763 71.8966 93.185 73.0346C93.8101 74.4952 94.084 76.082 93.9847 77.6676C93.902 78.4536 93.7503 79.2257 93.5987 80.0944L93.5159 80.5908C93.4573 81.0613 93.3463 81.5238 93.185 81.9697C93.0609 82.2868 92.9644 82.604 92.8679 82.9211C92.7401 83.553 92.4609 84.1444 92.0543 84.6447L91.8751 84.8377C91.6608 85.0961 91.4206 85.3318 91.1581 85.541C90.8743 84.8252 90.7247 84.0633 90.7168 83.2934C90.708 82.8084 90.5751 82.3336 90.3307 81.9145C90.2416 81.7776 90.1263 81.6595 89.9914 81.5673C89.8565 81.475 89.7048 81.4102 89.5448 81.3768ZM18.9467 59.7423C18.7224 59.2651 18.5647 58.7594 18.4779 58.2394C18.3676 57.7016 18.2297 57.1638 18.1194 56.6261C17.8127 55.3261 17.6966 53.9884 17.7747 52.6549C17.8229 52.2565 17.8229 51.8537 17.7747 51.4553C17.7747 51.4553 17.6092 50.173 18.6985 49.8834C19.3503 49.6629 19.9473 49.3056 20.4497 48.8355C21.3194 48.2182 22.3116 47.795 23.3591 47.5945L24.1588 47.3325C24.3791 47.2989 24.5889 47.2158 24.7725 47.0895C24.956 46.9632 25.1086 46.7969 25.2187 46.6032C25.3289 46.4095 25.3937 46.1933 25.4083 45.971C25.423 45.7486 25.3871 45.5258 25.3033 45.3194C25.2987 45.2689 25.2987 45.2181 25.3033 45.1677V44.9746L25.4688 44.5748C25.4688 44.3817 25.4688 44.1887 25.5791 43.9956L25.7032 43.1959C25.753 42.4373 25.9547 41.6965 26.2961 41.0173C26.4156 40.759 26.4587 40.4719 26.4202 40.19V39.9693V39.6384C26.4202 39.0731 26.5029 38.5215 26.5581 37.97C26.5862 37.8345 26.6231 37.7009 26.6684 37.5701L26.82 37.0599C27.0131 36.4119 27.2061 35.7638 27.413 35.1157L27.5371 34.6745C27.5785 34.4275 27.6625 34.1896 27.7853 33.9713C28.4057 33.2543 28.5161 31.3376 28.5988 29.2555V28.6764C28.6321 28.2072 28.5614 27.7364 28.392 27.2975C28.2643 27.056 28.2346 26.7745 28.3092 26.5116C28.3725 26.2768 28.3725 26.0294 28.3092 25.7946C28.3048 25.7165 28.3048 25.6382 28.3092 25.5602C28.3092 25.2568 28.4057 24.9397 28.4747 24.6363C28.5436 24.333 28.6126 23.8642 28.6539 23.4781C28.6961 23.334 28.6961 23.1809 28.6539 23.0368C28.6828 22.9843 28.7059 22.9288 28.7229 22.8714C28.8746 22.5404 29.0262 22.2233 29.1641 21.9062C29.462 21.1529 29.8362 20.4321 30.281 19.7551C30.61 19.453 31.0075 19.2354 31.4393 19.1209L31.8529 18.9692H31.9219L32.6527 19.7827C33.7971 21.134 34.983 22.5129 36.0723 23.8917C36.3282 24.2562 36.5195 24.662 36.6376 25.0914L36.8031 25.5326C36.8773 25.7303 36.9372 25.933 36.9823 26.1393C37.0601 26.6369 37.2537 27.1092 37.5476 27.5182C38.0671 28.0385 38.7136 28.414 39.4229 28.6075C41.6894 29.2925 44.0461 29.6318 46.4138 29.614C47.861 29.677 49.3026 29.8336 50.7296 30.0829C51.75 30.2483 52.7566 30.4414 53.7769 30.6206C55.404 30.924 57.0862 31.2273 58.7684 31.4204C60.4012 31.6147 62.0557 31.5072 63.6496 31.1032H63.7875C64.958 30.828 66.1058 30.4639 67.2209 30.0139C67.7103 29.7518 68.1092 29.3481 68.3654 28.8557L68.6825 28.4282C69.027 27.9845 69.1985 27.4308 69.1651 26.8701C69.2245 26.6579 69.3279 26.4606 69.4685 26.291C69.6288 26.073 69.763 25.837 69.8683 25.5877C70.0216 25.1715 70.1369 24.7423 70.213 24.3054C70.213 24.1675 70.282 24.0158 70.3096 23.878L70.544 23.7539C70.9067 23.4783 71.1488 23.0731 71.2196 22.6232C71.3754 22.2391 71.6158 21.895 71.9228 21.6166C72.054 21.4949 72.1783 21.366 72.2951 21.2305C72.3985 21.1134 72.509 21.0029 72.6261 20.8996C72.7088 21.4511 72.7777 21.9613 72.8053 22.4715C72.826 22.8803 72.826 23.2899 72.8053 23.6987C72.746 24.3792 72.7692 25.0644 72.8743 25.7394C73.0418 26.5298 73.301 27.298 73.6464 28.0283C73.7843 28.3317 73.9222 28.635 74.0463 28.9522L74.9977 31.3514L75.3149 32.2063C75.7009 33.1991 76.1008 34.1919 76.4593 35.1985L76.9144 36.3705C77.3452 37.4172 77.709 38.4903 78.0037 39.5833C78.2122 40.7197 78.277 41.8778 78.1967 43.0304V43.7612C78.2042 45.2508 78.1074 46.739 77.9071 48.215C77.4875 50.4289 76.9537 52.6196 76.3077 54.7784C76.1674 55.2563 75.978 55.7184 75.7423 56.1573C75.5084 56.6004 75.3101 57.0615 75.1494 57.5361C74.8351 58.3406 74.3667 59.076 73.7705 59.701C72.932 60.9213 71.9351 62.0248 70.806 62.9827C69.5385 63.8739 68.1851 64.6361 66.7659 65.2578L66.5728 65.3405C65.136 66.062 63.7535 66.8869 62.4362 67.8087C61.5124 68.4154 60.6161 69.0773 59.6785 69.7253C58.7409 70.3734 57.9411 70.9939 57.0586 71.5868C55.9412 72.3369 54.76 72.9875 53.5287 73.531C52.2332 74.1153 50.8053 74.3437 49.3921 74.1929C48.6338 74.1101 47.8754 74.0826 47.1032 74.0412C46.331 73.9998 45.5451 74.0412 44.7729 73.8895C43.7388 73.7654 42.6908 73.5862 41.6567 73.4069L39.2023 73.0208L37.7407 72.814C35.9206 72.552 34.0453 72.29 32.2252 72.1935C29.7412 72.0248 27.4166 70.9094 25.7307 69.0773C24.0998 67.5557 22.7056 65.799 21.5941 63.8651C21.2218 63.2033 20.8082 62.5828 20.3945 61.9761C19.8549 61.2701 19.3708 60.5232 18.9467 59.7423Z" fill="black"/>
<path d="M25.0413 58.1015C25.0335 58.5591 25.1451 59.0109 25.3652 59.4123C25.5852 59.8137 25.9061 60.1508 26.2961 60.3904C26.69 60.6385 27.1306 60.8032 27.5907 60.8744C28.0508 60.9455 28.5206 60.9216 28.9711 60.8041C29.3497 60.7403 29.7108 60.5983 30.0314 60.387C30.3519 60.1756 30.6248 59.8997 30.8326 59.5769C30.8553 59.5324 30.883 59.4908 30.9153 59.4528C31.0808 59.7561 31.2462 60.0319 31.4117 60.3077C31.5269 60.5215 31.705 60.6947 31.9219 60.8041L32.3217 60.9833C32.7275 61.2045 33.1645 61.3626 33.6179 61.4521C33.9867 61.5162 34.3604 61.5484 34.7348 61.5486C35.4023 61.5774 36.0651 61.4245 36.6527 61.1065C37.2403 60.7884 37.7307 60.317 38.0716 59.7423C38.6232 58.8598 39.1058 57.9498 39.6298 56.9846C39.7763 56.6767 39.9007 56.3588 40.002 56.0332L40.2089 55.6057C40.2426 55.518 40.2515 55.4226 40.2344 55.3301C40.2174 55.2377 40.1752 55.1517 40.1124 55.0817C40.0511 55.0095 39.9709 54.9558 39.8808 54.9266C39.7907 54.8973 39.6942 54.8938 39.6022 54.9163C38.9033 55.0526 38.2635 55.4011 37.77 55.9144C37.2765 56.4277 36.9532 57.0807 36.8444 57.7843C36.8066 57.8774 36.7503 57.9618 36.679 58.0325L36.2653 58.5979L35.8103 59.2184C35.7557 59.2887 35.7137 59.3681 35.6862 59.4528C35.4865 59.5884 35.2611 59.6817 35.0239 59.7267C34.7867 59.7718 34.5429 59.7677 34.3073 59.7147C34.056 59.6428 33.8228 59.5183 33.6231 59.3496C33.4235 59.1808 33.2619 58.9716 33.1491 58.7358C32.8695 58.211 32.6164 57.6726 32.3907 57.1225L31.9357 56.2124C31.8698 56.0797 31.7567 55.9764 31.6185 55.9229C31.4813 55.8683 31.3283 55.8683 31.1911 55.9229C31.0546 56.0115 30.9117 56.0898 30.7636 56.1573C30.3894 56.3166 30.0551 56.5568 29.7846 56.8605C29.4647 57.2895 29.1919 57.7518 28.9711 58.2394C28.8746 58.4324 28.7781 58.6392 28.6815 58.8047C28.3711 58.977 28.0118 59.0401 27.6612 58.9839C27.4869 58.6372 27.3394 58.2777 27.2199 57.9084V57.7568C26.8067 56.6259 26.8067 55.3853 27.2199 54.2544C27.2466 54.1693 27.2504 54.0786 27.231 53.9915C27.2117 53.9044 27.1698 53.8239 27.1096 53.758C27.0527 53.6881 26.9773 53.6356 26.892 53.6063C26.8067 53.5771 26.7149 53.5723 26.627 53.5926H26.1444C25.9404 53.5775 25.7355 53.608 25.5447 53.682C25.3539 53.7559 25.182 53.8714 25.0413 54.02C24.69 54.5539 24.5252 55.189 24.5725 55.8263C24.6066 56.211 24.6853 56.5905 24.8069 56.957C24.9376 57.3258 25.0165 57.711 25.0413 58.1015Z" fill="black"/>
<path d="M35.9482 41.0035C36.0018 41.252 36.1439 41.4725 36.348 41.624L36.5273 41.8032C36.5901 41.873 36.671 41.9241 36.761 41.9509C36.851 41.9776 36.9467 41.979 37.0375 41.9549V42.4651C37.0481 42.6074 37.1121 42.7404 37.2167 42.8374C37.3129 42.9189 37.4353 42.963 37.5614 42.9615C38.0228 42.894 38.4475 42.6716 38.7657 42.3308C39.084 41.99 39.2768 41.5511 39.3126 41.0862C39.3953 39.9556 39.0092 39.8177 38.8576 39.7074C38.7059 39.5971 38.7473 39.7074 38.6645 39.404C38.6374 39.2862 38.6005 39.1709 38.5542 39.0593C38.4088 38.8187 38.2076 38.6167 37.9676 38.4703C37.7275 38.3239 37.4558 38.2374 37.1754 38.2182C36.9853 38.2205 36.7977 38.2622 36.6245 38.3405C36.4513 38.4188 36.2961 38.5321 36.1688 38.6732C36.0569 38.7949 35.972 38.9389 35.9197 39.0958C35.8675 39.2526 35.8489 39.4188 35.8654 39.5833V40.0107C35.873 40.343 35.9007 40.6745 35.9482 41.0035Z" fill="black"/>
<path d="M56.7553 44.3404C56.8357 44.3842 56.9257 44.4079 57.0173 44.4093C57.1032 44.4074 57.1878 44.3881 57.266 44.3526C57.3442 44.317 57.4144 44.266 57.4723 44.2025C57.6256 44.0869 57.733 43.9208 57.7757 43.7336C57.7757 43.5682 57.8446 43.4165 57.886 43.251C58.0526 42.7248 58.1363 42.1759 58.1342 41.624C58.0025 41.0532 57.6506 40.5576 57.1552 40.2451C57.0051 40.162 56.8395 40.1106 56.6688 40.094C56.498 40.0774 56.3257 40.096 56.1624 40.1486H55.8452C55.7476 40.1469 55.6515 40.1733 55.5684 40.2246C55.4853 40.276 55.4187 40.3501 55.3764 40.4382C55.1981 41.1521 55.2337 41.9028 55.4789 42.5967C55.7241 43.2905 56.168 43.8969 56.7553 44.3404Z" fill="black"/>
</svg>
